# xmcd
#
# Track frame offsets: 
#        150
#        44110
#        65481
#        95843
#        120595
#        152021
#        180217
#        211240
#        243611
#        279329
#        315925
#
# Disc length: 4670 seconds
#
# Revision: 5
# Processed by: cddbd v1.5.2PL0 Copyright (c) Steve Scherf et al.
# Submitted via: ExactAudioCopy v0.99pb5
#
DISCID=95123c0b
DTITLE=Hernán Cattáneo - The Masters Series, Volume 2 Disc Two
DYEAR=2005
DGENRE=House
TTITLE0=Space Manoeuvres - Part Three (Pole Folder Main Mix)
TTITLE1=Graham and Blades - Funky Summa (Andy Page Remix)
TTITLE2=Jeff Bennett - Strange Items (Hernan Cattaneo and John Tonks Mix
TTITLE2=)
TTITLE3=Snake Sedrick - Fields (Blue Haze Vocal Mix)
TTITLE4=Dousk - Estrange
TTITLE5=Micah feat. Jaidene Veda - Come From (Nick and John Dalagelis Un
TTITLE5=released Vocal Mix)
TTITLE6=Hernan Cattaneo and John Tonks - Warsaw (Renaissance Edit)
TTITLE7=Nick Muir - Savin' You
TTITLE8=Derek Howell - Happy to Be Sad
TTITLE9=Hybrid - Higher Than A Skyscraper (Satoshi Tomiie Mix)
TTITLE10=Underworld - Mo Move (Hernan Cattaneo Edit)
EXTD=
EXTT0=
EXTT1=
EXTT2=
EXTT3=
EXTT4=
EXTT5=
EXTT6=
EXTT7=
EXTT8=
EXTT9=
EXTT10=
PLAYORDER=
